<?xml version="1.0" encoding="utf-8"?>
<!-- Generator: Adobe Illustrator 24.3.0, SVG Export Plug-In . SVG Version: 6.00 Build 0)  -->
<svg version="1.1" id="圖層_1" xmlns="http://www.w3.org/2000/svg" xmlns:xlink="http://www.w3.org/1999/xlink" x="0px" y="0px"
	 viewBox="0 0 271.6 202.5" style="enable-background:new 0 0 271.6 202.5;" xml:space="preserve">
<style type="text/css">
	.st0{fill:url(#polygon16_1_);}
	.st1{fill:#0071B9;}
	.st2{fill:url(#polygon25_1_);}
	.st3{fill:#1D2C5E;}
	.st4{fill:url(#polygon36_1_);}
	.st5{fill:url(#polygon43_1_);}
	.st6{fill:#312370;}
	.st7{fill:#21386E;}
	.st8{fill:url(#polygon56_1_);}
	.st9{fill:url(#path69_1_);}
	.st10{fill:url(#polygon78_1_);}
	.st11{fill:#FFCB05;}
	.st12{fill:#7D7F68;}
	.st13{fill:#C7A008;}
	.st14{fill:#3C5AA6;}
	.st15{fill:#3567B0;}
	.st16{fill:#1E2D5F;}
	.st17{fill:#3466AF;}
	.st18{fill:url(#path183_1_);}
	.st19{fill:url(#path196_1_);}
	.st20{enable-background:new    ;}
	.st21{fill:url(#SVGID_1_);}
	.st22{fill:url(#SVGID_2_);}
	.st23{fill:url(#SVGID_3_);}
	.st24{fill:url(#SVGID_4_);}
	.st25{fill:url(#SVGID_5_);}
	.st26{fill:url(#SVGID_6_);}
	.st27{fill:url(#SVGID_7_);}
	.st28{fill:url(#SVGID_8_);}
	.st29{fill:url(#SVGID_9_);}
	.st30{fill:url(#SVGID_10_);}
</style>
<g>
	
		<linearGradient id="polygon16_1_" gradientUnits="userSpaceOnUse" x1="426.7512" y1="786.0094" x2="416.7312" y2="767.3494" gradientTransform="matrix(1 0 0 1 -413.45 -732.49)">
		<stop  offset="0" style="stop-color:#0070B6"/>
		<stop  offset="1" style="stop-color:#1D2C5E"/>
	</linearGradient>
	<polygon id="polygon16" class="st0" points="0,36.6 12,56.9 16.8,52.3 3.7,32.8 	"/>
	<polygon id="polygon18" class="st1" points="178.6,20.6 178.1,23.3 183.8,21.4 183.1,18.1 	"/>
	
		<linearGradient id="polygon25_1_" gradientUnits="userSpaceOnUse" x1="548.9261" y1="747.8763" x2="561.6361" y2="734.2463" gradientTransform="matrix(1 0 0 1 -413.45 -732.49)">
		<stop  offset="0" style="stop-color:#0070B6"/>
		<stop  offset="1" style="stop-color:#1D2C5E"/>
	</linearGradient>
	<polygon id="polygon25" class="st2" points="145,2.3 126.5,23.5 131.9,22 149.5,0 	"/>
	<polygon id="polygon27" class="st3" points="244.1,31.3 248.6,28.9 247.3,40.3 	"/>
	<polygon id="polygon29" class="st3" points="215.8,38.6 219.9,39.5 225,37 220.5,35.3 	"/>
	
		<linearGradient id="polygon36_1_" gradientUnits="userSpaceOnUse" x1="493.4502" y1="770.59" x2="491.9402" y2="757.85" gradientTransform="matrix(1 0 0 1 -413.45 -732.49)">
		<stop  offset="0" style="stop-color:#0070B6"/>
		<stop  offset="1" style="stop-color:#1D2C5E"/>
	</linearGradient>
	<polygon id="polygon36" class="st4" points="76.6,26.6 77.2,39.7 82.9,37.5 81.2,24.1 	"/>
	
		<linearGradient id="polygon43_1_" gradientUnits="userSpaceOnUse" x1="632.3477" y1="768.1401" x2="631.7377" y2="756.6401" gradientTransform="matrix(1 0 0 1 -413.45 -732.49)">
		<stop  offset="0" style="stop-color:#125D9E"/>
		<stop  offset="1" style="stop-color:#1D2C5E"/>
	</linearGradient>
	<polygon id="polygon43" class="st5" points="220.2,22.6 215.6,25.1 215.8,38.6 220.4,36.3 221.8,29.7 	"/>
	<polygon id="polygon45" class="st6" points="219.6,39.5 214.6,83.9 222.6,82.3 224.1,37.1 	"/>
	<polygon id="polygon47" class="st7" points="229.3,86 229.5,92 244.8,96.9 249.4,94.5 234.3,82.8 219.1,81.5 214.6,83.9 	"/>
	<polygon id="polygon49" class="st7" points="172.5,75.4 176.2,73.4 178.6,77.8 182.2,75.9 182.9,81.7 205.2,85.7 209.6,83.2 
		178.9,64.5 157.1,68.2 152.9,72.3 	"/>
	
		<linearGradient id="polygon56_1_" gradientUnits="userSpaceOnUse" x1="589.9099" y1="751.5599" x2="576.5699" y2="772.79" gradientTransform="matrix(1 0 0 1 -413.45 -732.49)">
		<stop  offset="0" style="stop-color:#125D9E"/>
		<stop  offset="1" style="stop-color:#1D2C5E"/>
	</linearGradient>
	<polygon id="polygon56" class="st8" points="165.4,20.8 160.9,23.3 152.9,72.3 157.4,69.9 165.1,42.4 	"/>
	<polygon id="polygon58" class="st3" points="129.8,27.4 126.2,29.3 126.5,30.5 135,25.1 131.3,21.1 126.5,23.5 	"/>
	<polygon id="polygon60" class="st7" points="139.5,85.3 103.2,67.3 107.7,63.8 144,82.8 	"/>
	<polygon id="polygon62" class="st3" points="106.6,18.3 101.1,28.7 106.9,27 111.1,15.8 	"/>
	
		<linearGradient id="path69_1_" gradientUnits="userSpaceOnUse" x1="471.8376" y1="785.6011" x2="480.9376" y2="803.5011" gradientTransform="matrix(1 0 0 1 -413.45 -732.49)">
		<stop  offset="0" style="stop-color:#105FA1"/>
		<stop  offset="1" style="stop-color:#1D2C5E"/>
	</linearGradient>
	<path id="path69" class="st9" d="M56.6,61.4L52,64.6c0.6,3,1.3,5.9,2.2,8.8c1,2.4,2.5,4.7,4.3,6.5c2,1.9,4.4,3.3,7,4.1
		c5.4,1.4,11.2,0.5,15.9-2.7c1.5-0.9,2.9-2,4.2-3.2C80.8,81.1,56.6,61.4,56.6,61.4z"/>
	<polygon id="polygon71" class="st3" points="81.5,38.7 85.7,85.4 103.1,82.9 107.7,80.4 86.2,35.9 81.8,37.3 77.2,39.7 	"/>
	
		<linearGradient id="polygon78_1_" gradientUnits="userSpaceOnUse" x1="437.4921" y1="779.5091" x2="448.0221" y2="803.9191" gradientTransform="matrix(1 0 0 1 -413.45 -732.49)">
		<stop  offset="0" style="stop-color:#105FA1"/>
		<stop  offset="1" style="stop-color:#1D2C5E"/>
	</linearGradient>
	<polygon id="polygon78" class="st10" points="16.5,54.9 35.9,98.8 54.3,92.9 58.8,89.9 20.6,49.9 15.8,52.8 12,56.9 	"/>
	<path id="path80" class="st3" d="M208.4,75.6l0.3,2.2c1.6-0.1,3.2-0.4,4.7-0.9c2.4-0.8,4.6-1.9,6.7-3.4
		C219.5,73.7,211,75.9,208.4,75.6"/>
	<path id="path82" class="st3" d="M143.3,64.4l0.7,3.5c3.6-0.6,7-1.9,10.1-3.8c2-1.2,4.1-3,4.8-3.4C158.4,61,143.3,64.4,143.3,64.4z
		"/>
	<g id="g84">
		<path id="path86" class="st11" d="M40.9,94.7l-1.4-3.2l-18.4-41l-0.4-0.8L19.9,50l-0.6,0.3l-3.3,1.6c-0.5-0.8-1.3-2.2-1.8-3.1
			L6.9,36.3L5,33.1l3.2-2c3.2-2,6.6-3.8,10.1-5.3c6.9-3,14.3-4.7,21.8-4.8c2.2,0,4.4,0.2,6.5,0.5c3.3,0.3,6.5,1.5,9.2,3.3
			c3.9,2.2,6.9,5.5,8.7,9.6c1.4,3.5,1.7,7.4,0.8,11.2l-0.5,2.3l2-1.4c1.3-1,2.7-1.8,4.2-2.4c2.5-1.1,5.2-1.7,8-1.7
			c2.5,0,4.9,0.5,7.2,1.5l1.4,0.6l-0.1-1.5l-0.6-6.7l-0.1-1.1l-1,0.3l-3.1,0.8l-0.6-11.4l22.8-7.3l-0.2,8.9l1.7,0.4l5-9.5l14.9,13.2
			l0.6,0.6l0.6-0.6c2.1-2,4.5-3.5,7.2-4.6l1.1-0.5l-0.8-1l-2.7-3.3l17-19.7l9,13.4l-13.7,7.4l-3,1.6l3.5,0.1
			c6.3,0,12.2,2.9,16.2,7.7l1.4,1.8l0.9,1.1l-1.5,1.6l-1,1.1l-3.4,3.7l-0.6,0.7l0.7,0.6l3.2,2.9l1.2,1.1l0.3-1.7l1.1-7.6l0.3-2l0,0
			l0.3-2l1.8-11.3h17.2l0.1-0.8l0.3-1.9h14.8l3.6,22.6l0.2,1.5l1.2-0.9c1.5-1.1,3.1-1.9,4.8-2.6c2.2-0.9,4.6-1.3,7-1.3
			c2.7,0,5.4,0.6,7.8,1.9c0.1,0.1,0.2,0.1,0.3,0.2l1.1,0.4l0.1-1.2l0.3-2.5l0.1-0.8l-0.8-0.2l-3-0.7l-0.1-11.8l22.9,5l1.7,8.5h1.8
			l1.8-7.3l19.1,4.6l-19.5,58.7l-14-4.3l-0.1-5.4v-0.8l-0.8-0.1l-13.9-2l0.8-7.1l0.2-1.7l-1.5,0.8c-0.7,0.3-1.4,0.6-2.1,0.9
			c-2.2,0.8-4.6,1.3-6.9,1.3c-0.7,0-1.3,0-2-0.1l-1.2-0.1l0.2,1.2l1,6.2l-20.3-3.6l-1.1-9.2l-0.3-3l-1.4,2.7l-2.3,4.5l-4.3-7.9
			l-1.3-2.4l-0.4,2.7l-0.9,6.1l-17.8-2.8l1.4-8.4l0.3-1.9l-1.7,1c-3.2,1.8-6.6,3.2-10.2,4c-1.4,0.3-2.9,0.6-4.3,0.7l-0.8,0.1v16.8
			l-35-17.3l-1.3-0.7v1.5v14.8L91.1,82l-0.7-7.1L90.3,73l-1.4,1.3c-2,2-4.3,3.6-6.9,4.7c-2.5,1.1-5.2,1.6-7.9,1.7
			c-2.6,0-5.1-0.6-7.5-1.7c-4.2-2-7.4-5.8-8.6-10.4c-0.6-2.2-0.8-4.6-0.5-6.9l0.3-2.5L56,61c-1.3,1.2-2.7,2.4-4.2,3.5l-0.5,0.4
			l0.2,0.6l5.3,20.2l0.9,3.6l-3.5,1.1l-9.9,3.2L40.9,94.7z M45.4,40.3c-0.5,0-1.1,0-1.6,0.1l-0.7,0.1l-1,0.2l0.3,1l0.2,0.6l2.8,9.3
			l0.3,0.9l0.4,1.3l1.1-0.9l0.7-0.6c2.8-2.5,3.7-5,3.1-8.2c-0.3-1.5-1.3-2.7-2.7-3.2C47.5,40.5,46.4,40.3,45.4,40.3L45.4,40.3z
			 M121.5,40.6l-1.8,1.7l-4.7,4.5l-1,1l1.3,0.5l5,1.9l1.5,0.6l-0.3-1.6c-0.4-2-0.5-4.1-0.3-6.2L121.5,40.6L121.5,40.6z M142,35.4
			c-3.9,0-7,3.1-7,7c0,1.2,0.3,2.4,0.9,3.4l0.4,0.7l0.6,1.1l0.9-1l0.6-0.6l6.9-7.8l0.5-0.6l0.9-1l-1.2-0.5l-0.8-0.3
			C143.7,35.5,142.9,35.4,142,35.4L142,35.4z"/>
	</g>
	<path id="path88" class="st12" d="M152.4,47c-0.1,0.1-0.1,0.1-0.2,0.2L152.4,47L152.4,47z"/>
	<polygon id="polygon90" class="st12" points="158.4,41.5 161.8,37.9 160.6,39.2 160.6,39 159.6,40.1 156.2,43.7 159.4,46.6 160,43 
		161.6,44.5 	"/>
	<polygon id="polygon92" class="st12" points="158.4,41.5 161.6,44.5 162.8,36.8 161.8,37.9 	"/>
	<path id="path94" class="st12" d="M115.7,47.5L115.7,47.5L115.7,47.5z"/>
	<path id="path96" class="st13" d="M134.7,50.7c0.3,0.3,0,0.1,0.3,0.3l2.1-1.5c-0.3-0.2-0.6-0.5-0.9-0.7c-3-2.8-2.2-9-0.3-12.4
		C130.7,40.6,131,47,134.7,50.7"/>
	<path id="path98" class="st13" d="M160,54.2c-3.7,3-8,5-12.6,6c-1.1,0.3-2.2,0.4-3.4,0.5c-8.3,0.8-15.2-3-17.8-9.1
		c-0.3-0.7-0.6-1.5-0.8-2.3c-1.2-4.6-0.3-9.5,2.4-13.5c0.3-0.4,0.5-0.7,0.8-1c-0.1,0.1-0.3,0.2-0.4,0.3c-1,0.8-1.9,1.8-2.6,2.9
		c-2.7,3.9-3.6,8.8-2.4,13.5c0.2,0.8,0.4,1.6,0.8,2.3c2.6,6.2,9.6,10,17.8,9.2c1.1-0.1,2.3-0.3,3.4-0.6c4.6-1,8.9-3,12.6-6
		c0.9-0.7,1.7-1.5,2.5-2.3l-0.1-0.1L160,54.2"/>
	<polygon id="polygon100" class="st13" points="101.7,38.5 110.9,25.5 110.5,25.2 101.6,37.7 	"/>
	<polygon id="polygon102" class="st13" points="162.8,36.8 161.6,44.5 160,43 159.4,46.6 156.2,43.7 159.6,40.1 160.6,39 
		160.6,39.2 161.8,37.9 	"/>
	<polygon id="polygon104" class="st13" points="151.4,15.4 154.6,14 148.7,6.4 146.8,9.2 	"/>
	<path id="path106" class="st13" d="M61.8,34.2C46.8,16,19.9,25.8,10.3,34.3l0.4,0.7c2.3-1.3,4.6-2.5,7-3.5c9.6-4.1,18.8-5.3,26.1-4
		c2.8,0.3,5.4,1.2,7.7,2.7c3.2,1.7,5.8,4.5,7.3,7.8c2.6,6,0.3,14-5.8,20.6C60.7,51.6,66,44.8,61.8,34.2z"/>
	<path id="path108" class="st13" d="M92.3,55.4c-0.1-0.3-0.1-0.7-0.2-1c-0.8-2.9-2.6-5.3-5-7c-3.8-2.6-9.2-3.1-14.5-0.9
		c-2.8,1.2-5.2,3-7.2,5.3c1.5-1.3,3.2-2.3,5-3.1c5.3-2.3,10.7-1.7,14.5,0.8c2.4,1.7,4.2,4.1,5,7c0.1,0.3,0.2,0.7,0.2,1
		c0.2,1.2,0.3,2.3,0.3,3.5c-0.2,3.6-1.4,7.1-3.6,10c-0.3,0.5-0.7,0.9-1.1,1.3c1.2-1,2.3-2.2,3.3-3.5c2.1-2.9,3.4-6.4,3.6-10
		C92.6,57.8,92.5,56.6,92.3,55.4"/>
	<path id="path110" class="st13" d="M77.6,51c0,0,2.2-2.2,2.1-2.2c-1.7,0-3.3,1.1-4,2.7C76.3,51.2,76.9,51.1,77.6,51"/>
	<path id="path112" class="st13" d="M82.7,54.2c0.1,0.4,0.2,0.8,0.2,1.1c0,0.6-0.1,1.1-0.3,1.6c0.4-0.2,3.6-1.8,2.4-5
		C85,52,82.6,54.2,82.7,54.2"/>
	<path id="path114" class="st13" d="M70.2,56c0-1.3,2.3-4.6,3-5.7c-3.6,2.3-5.2,5.4-5.2,7.8c0,4.2,3.7,7.6,8.1,7.6
		c3.5-0.2,6.6-2.1,8.4-5.1c-1.3,0.9-4.6,2.9-6.4,2.9C73.9,63.7,70.4,60.3,70.2,56C70.3,56.1,70.3,56,70.2,56"/>
	<polygon id="polygon116" class="st13" points="101.2,59.8 101.3,76.8 104,76.9 103.4,57.6 	"/>
	<polygon id="polygon118" class="st13" points="85.8,27.5 85.8,29 98.6,25.2 99.5,41.5 101.7,38.5 101.2,22.2 	"/>
	<polygon id="polygon120" class="st13" points="124.3,33.3 112.3,22.3 110.9,25.5 121.5,35.4 	"/>
	<path id="path122" class="st13" d="M122.5,53.8l-14.1-4.7l-2,2.2l14,5.6c1.6,3.1,4,5.6,7,7.4c3,1.8,6.4,2.9,9.8,3.2v6.9l2.2,1.1
		l0.7-10.4L122.5,53.8z"/>
	<path id="path124" class="st13" d="M145.1,51.9c2.8-0.7,5.4-2.3,7.2-4.6c-1.3,1.1-7.7,2.5-8.8,2.8l-2.1,2.3
		C142.6,52.4,143.9,52.2,145.1,51.9"/>
	<path id="path126" class="st13" d="M138.8,27.9c-6.4,0.8-9.7,6.2-10.2,6.8c2.5-2.1,5.5-3.5,8.6-4.2c7.9-1.9,14.8,0.5,19.1,5.8
		l2.7-2.2C154.8,28.9,146.7,26.1,138.8,27.9"/>
	<path id="path128" class="st13" d="M160.2,54c1-0.6,1.9-1.3,2.8-2.1l-8.5-7.6c-0.6,1-1.3,1.9-2,2.7L160.2,54z"/>
	<path id="path130" class="st13" d="M203.9,74.4c-8.9-7.4-8.4-23.1-4-28.1L196,21.6l-8.6,1.1l-0.4,2.2h6.5l3.5,22.4
		c-4.4,5-6.5,11.7-5,17.9c1,4.6,4,8.6,8.2,10.8c0.4,0.2,0.9,0.4,1.3,0.6l0.1,0.3l2.6,0.4C204.1,77.4,204.4,74.6,203.9,74.4
		L203.9,74.4z"/>
	<polygon id="polygon132" class="st13" points="169.6,25.2 169.2,27.4 179,27.4 181.9,43.3 184.1,41.1 181.8,24.3 	"/>
	<polygon id="polygon134" class="st13" points="186.4,56 183.2,64.2 184,66.4 188.5,53.9 	"/>
	<polygon id="polygon136" class="st13" points="177,50.9 174.8,53.1 172.4,67.9 174.7,68.7 	"/>
	<path id="path138" class="st13" d="M221.1,46.2c1.3,0.9,2.4,2.1,3.2,3.5c0.7,1.1,1.2,2.3,1.5,3.5c1,4.6-0.1,9.4-3,13.1
		c-0.3,0.4-0.6,0.8-0.9,1.1c1.1-1,15.1-11.3,1.5-24.8c-15-5-20.7,4.8-21.2,5.5c1.6-1.4,3.4-2.5,5.4-3.2
		C212.6,42.9,217.6,43.6,221.1,46.2"/>
	<path id="path140" class="st13" d="M213.6,47.1c0,0.1,2.1-2.2,2.2-2.2c-2.7,0.1-3.9,1.4-3.8,2c-0.2,0.2-0.3,0.5-0.4,0.7
		C212.2,47.4,212.8,47.2,213.6,47.1"/>
	<path id="path142" class="st13" d="M218.6,50.5c0.1,0.4,0.1,0.8,0.1,1.1c0,0.5-0.1,1-0.4,1.4c0.4-0.2,3.6-1.2,2.4-4.8
		C220.8,48.4,218.5,50.5,218.6,50.5"/>
	<path id="path144" class="st13" d="M211.5,61.8c3,0.1,6.4-1.7,8.8-5c-6.1,1.3-12.6-9-12-10c-2.3,1.7-4.4,4.9-4.5,7.2
		c0,4.2,3.4,7.7,7.6,7.8C211.4,61.8,211.4,61.8,211.5,61.8"/>
	<polygon id="polygon146" class="st13" points="245.2,88.5 246.6,89.4 264.2,36.6 251,33.6 250.9,36.7 261.5,39 	"/>
	<polygon id="polygon148" class="st13" points="224.3,27.9 224.4,30.9 238.4,33.7 243.8,59.3 246,57.1 240.8,31.2 	"/>
	<polygon id="polygon150" class="st13" points="235.1,57.1 231.2,78.8 233.4,79.6 237.2,54.9 	"/>
	<polygon id="polygon152" class="st13" points="53.5,86.8 46.9,63.1 44.5,64.8 50.6,87.5 	"/>
	<path id="path154" class="st13" d="M51.8,51.2c-2.1,2.2-4.3,4.2-6.8,5.9l-1.2-3.7l-2.5-8.2l-1.6-5.5l-1.6,2l1.6,5.5l2.5,8.2
		l1.2,3.7C46,57.4,49.8,54.3,51.8,51.2"/>
	<path id="path156" class="st12" d="M144.5,37.1c-2.1-0.8-5-0.6-6.6,1.2c-0.5,0.6-0.9,1.2-1.3,1.9c1.8-1.2,4-1.5,6-0.8L144.5,37.1
		L144.5,37.1z"/>
	<path id="path158" class="st12" d="M49.9,44.5c-0.3-1.1-1-2-2-2.5c-1.3-0.5-2.8-0.6-4.2-0.3c0.2,0.8,0.5,1.8,0.6,2.2
		c0.6,0.1,1.3,0.2,1.9,0.5c0.9,0.4,1.6,1.2,1.8,2.2c0.4,1.5,0.2,3-0.5,4.4C49.4,49.1,50.3,47.1,49.9,44.5"/>
	<g id="g160">
		<g id="g162">
			<path id="path164" class="st14" d="M53.1,44.5c-0.9-4.8-7.2-7.5-13.5-4.1l1.6,5.5l2.5,8.2l1.2,3.7C49.7,54.8,54.4,51.1,53.1,44.5
				z M46.9,51.9c-0.7-2.2-2.2-7-2.2-7s-0.3-1-0.7-2.2c1.2-0.3,2.5-0.1,3.7,0.4c0.9,0.4,1.6,1.2,1.8,2.2
				C50.1,47.9,49.2,49.9,46.9,51.9z"/>
		</g>
	</g>
	<g id="g166">
		<g id="g168">
			<path id="path170" class="st15" d="M147.8,36.8c-3.5-3.2-8.9-3-12.1,0.5c-3.2,3.5-3,8.9,0.5,12.1c0.3,0.3,0.6,0.5,0.9,0.7
				l11.3-12.8C148.2,37.2,148,37,147.8,36.8z M137.1,45.8c-1.5-2.7-0.5-6,2.2-7.5c1.4-0.8,3.2-0.9,4.7-0.3L137.1,45.8z"/>
		</g>
	</g>
	<polygon id="polygon172" class="st16" points="162.8,35.4 156.6,41.4 162.5,46.8 	"/>
	<path id="path174" class="st17" d="M220.8,48.3c0.1,0.4,0.1,0.8,0.1,1.2c-0.4,2.7-2.9,4.5-5.6,4.1c-2.2-0.3-4-2.2-4.1-4.5
		c0.2-2.3,2.2-4.1,4.5-4.1c-0.5-0.1-1-0.2-1.5-0.2c-4.5-0.2-8.1,3-8.3,6.9c0.2,4.4,4,7.8,8.4,7.6c3.9-0.2,7-3.1,7.5-6.9
		C221.9,50.9,221.5,49.5,220.8,48.3"/>
	
		<linearGradient id="path183_1_" gradientUnits="userSpaceOnUse" x1="639.71" y1="-1546.6157" x2="655.6301" y2="-1546.6157" gradientTransform="matrix(1 0 0 -1 -569.45 -1490.6899)">
		<stop  offset="0" style="stop-color:#3C5AA6"/>
		<stop  offset="0.93" style="stop-color:#2B73B9"/>
		<stop  offset="1" style="stop-color:#2A75BB"/>
	</linearGradient>
	<path id="path183" class="st18" d="M85.1,53.1c-0.3,2.7-2.8,4.6-5.4,4.3c-2.2-0.3-4-2-4.3-4.3c0.1-2.3,2-4.2,4.4-4.3
		c-0.5-0.1-1-0.1-1.5-0.1c-4.5,0-8,3.3-8,7.3c0.4,4.4,4.4,7.6,8.8,7.2c3.8-0.4,6.8-3.4,7.2-7.2c0-1.4-0.5-2.8-1.3-4
		C85,52.3,85.1,52.7,85.1,53.1"/>
	<g id="g185">
		<g id="g187">
			
				<linearGradient id="path196_1_" gradientUnits="userSpaceOnUse" x1="573.18" y1="-1538.5649" x2="838.92" y2="-1538.5649" gradientTransform="matrix(1 0 0 -1 -569.45 -1490.6899)">
				<stop  offset="0" style="stop-color:#3C5AA6"/>
				<stop  offset="0.93" style="stop-color:#2B73B9"/>
				<stop  offset="1" style="stop-color:#2A75BB"/>
			</linearGradient>
			<path id="path196" class="st19" d="M248.6,28.9l-2,8.2l-1.8-9.1l-24.6-5.4l0.2,13.6l3.7,0.8l-0.3,2.5c0,0-0.1,0-0.1-0.1
				c-4.9-2.4-10.6-2.7-15.6-0.7c-1.8,0.7-3.5,1.6-5,2.7l-3.7-23.4h-16.3l-0.4,2.7h-17.2l-2,12l-1.4-1.7c-4.1-5.1-10.3-8.1-16.9-8.1
				l14.6-7.9L149.5,0l-18.4,21.2l3.2,3.9c-2.8,1.1-5.3,2.7-7.5,4.8l-15.8-14l-5.5,10.6l0.2-10.2l-24.6,7.9l0.6,13.2l4.2-1.1l0.6,6.7
				c-5.1-2.1-10.8-2.1-15.9,0.2c-1.6,0.7-3,1.5-4.4,2.5c1-3.9,0.7-8-0.8-11.7c-1.8-4.2-5-7.7-9-10c-2.9-1.9-6.2-3-9.6-3.4
				C38.3,19.1,28,20.6,18,24.9c-3.6,1.5-7,3.3-10.3,5.4l-3.9,2.5l2.4,4l7.4,12.5c0,0,2.3,3.8,2.3,3.8l4-2l0.6-0.3l18.4,41l1.8,3.9
				l4.1-1.3l9.9-3.2l4.3-1.4l-1.2-4.4l-5.3-20.2c1.5-1.1,2.9-2.3,4.2-3.6c-0.3,2.4-0.1,4.9,0.5,7.2c1.3,4.8,4.6,8.8,9,10.9
				c5.1,2.3,11,2.3,16.1,0c2.7-1.1,5.2-2.8,7.3-4.8l0.8,8l17.4-2.6V64.8l36.3,18V65.4c1.5-0.1,3-0.4,4.4-0.7
				c3.7-0.8,7.2-2.2,10.5-4.1l-1.5,9.3L177,73l1.1-7l5.1,9.4l3.1-6l1.1,9.9l22.2,3.9l-1.2-7.5c3.2,0.3,6.4-0.1,9.3-1.2
				c0.7-0.3,1.5-0.6,2.1-1l-0.9,8l14.8,2.1l0.1,6.1l15.4,4.8L269.5,34L248.6,28.9L248.6,28.9z M161.8,37.9l1-1.1l-1.2,7.6l-3.2-2.9
				L161.8,37.9z M148.8,6.8l5.4,7.3l-15.4,7.6l-1.1-1.6L148.8,6.8z M46.9,63.1L53,86.7l-9.9,3.2L22.7,44.3c-1.1,0.6-3.1,1.6-5,2.5
				l-7.4-12.5c3-1.9,6.3-3.6,9.6-5c9.6-4.1,18.8-5.3,26.1-4c2.8,0.3,5.4,1.2,7.8,2.7c3.2,1.7,5.8,4.5,7.3,7.9
				C64.5,44.1,58.6,55.9,46.9,63.1z M92.6,58.9c-0.2,3.6-1.4,7.1-3.6,10c-2.1,2.9-5,5.3-8.3,6.7c-8.6,3.7-17.2,0-19.5-8.2
				c-2.2-7.9,3-17.3,11.3-20.9c5.3-2.2,10.7-1.7,14.5,0.9c2.4,1.7,4.2,4.1,5,7c0.1,0.3,0.2,0.7,0.2,1C92.5,56.6,92.6,57.7,92.6,58.9
				z M139.5,75.6l-36-18l0.1,18.9l-9.3,1.3L93.5,70c3-4.8,3.8-10.6,2.4-16.1c-0.8-2.9-2.3-5.4-4.4-7.5l-1.4-15.9L86,31.5l-0.2-4
				l15-4.5l0.9,15.5l11-15.5l10.8,10.3l-15.1,15.9l14.2,5.6c1.6,3.1,4,5.6,7,7.4c3,1.8,6.4,2.9,9.8,3.2L139.5,75.6L139.5,75.6z
				 M120.7,49.5l-5-1.9l4.7-4.5C120.2,45.2,120.3,47.3,120.7,49.5z M160,54.2c-3.7,3-8,5-12.6,6c-1.1,0.3-2.2,0.4-3.4,0.5
				c-8.3,0.8-15.2-3-17.8-9.1c-0.3-0.7-0.6-1.5-0.8-2.3c-1.2-4.6-0.3-9.5,2.4-13.5c0.7-1.1,1.6-2,2.6-2.9c2.6-2.2,5.7-3.8,9-4.6
				c7.9-1.9,14.8,0.5,19.1,5.7l-15,16c1.3,0.1,2.6,0,3.8-0.4c2.9-0.7,5.5-2.4,7.3-4.8l6,5.4l1.8,1.6C161.7,52.7,160.9,53.5,160,54.2
				z M191.9,75.5l-3.3-21.6L184,65.8l-7-14.9h-0.1l-2.7,17.3l-11.5-2l1.6-9.6c0.4-0.4,0.9-0.8,1.3-1.2l3.7-3.8l-3.6-3.2l3.9-23h11.6
				l2.9,15.9l3.3-18.4h8.3l3.4,22.4c-4.4,5-6.5,11.7-5.1,17.9c1.1,4.6,4.1,8.6,8.3,10.9c0.4,0.2,0.9,0.4,1.3,0.6l0.4,2.9L191.9,75.5
				L191.9,75.5z M220.6,68.5c-1.3,0.9-2.7,1.7-4.2,2.2c-2.7,1.1-5.7,1.4-8.6,0.8c-1.8-0.3-3.5-1.1-5-2.1c-2.4-1.8-4.1-4.3-4.8-7.2
				c-0.8-3.8-0.1-7.8,1.9-11.2c1-1.7,2.3-3.3,3.8-4.7c1.7-1.5,3.7-2.8,5.8-3.6c5.1-1.9,10.1-1.2,13.6,1.3c1.3,0.9,2.4,2.1,3.2,3.5
				c0.7,1.1,1.2,2.3,1.5,3.5c1,4.6-0.1,9.4-3,13.1C223.8,65.8,222.3,67.3,220.6,68.5L220.6,68.5z M246.5,88.8l-8.5-2.5l-0.8-31.4
				L233,79.1l-9.3-1.5l0.7-7c6.1-5.1,9.3-13.2,7.5-20.6c-0.7-3.2-2.4-6-4.8-8.2l0.8-8.2l-3.5-0.9l0.2-4.4l16,3.2l5.4,25.6l5.5-22.9
				l12.2,2.7L246.5,88.8L246.5,88.8z"/>
		</g>
	</g>
	<g id="flowRoot3115">
		<path id="path3084" d="M253.5,91.8v-2.4h-0.9v-0.3h2.1v0.3h-0.9v2.4H253.5z"/>
		<path id="path3086" d="M255.1,91.8v-2.7h0.5l0.6,1.9c0.1,0.2,0.1,0.3,0.1,0.4l0.1-0.4l0.6-1.9h0.5v2.7h-0.3v-2.2l-0.8,2.2h-0.3
			l-0.8-2.3v2.3H255.1z"/>
	</g>
	<g class="st20">
		<path class="st11" d="M20.3,117.3l16.5-5.3l6.3,6.2l1.4-11l10.8-3L83,160.8l-20.3,3L54,144.3l-2.1,8.5l-7.6-8.2l2.6,17.7L28,168.5
			L20.3,117.3z"/>
	</g>
	<g class="st20">
		<path class="st11" d="M118.8,90l15.1-7.5l0.6,23.6l11.5-0.1l0.5,13.5l-11.9,0.6c-0.3,3.3-0.4,6.5-0.3,9.4c0.1,2.4,0.3,4.4,0.6,6
			c0.3,1.3,0.9,2.3,1.9,3c1,0.7,2.1,1,3.3,0.9c1.4,0,2.6-0.5,3.6-1.4s1.5-2,1.4-3.4c0-0.2-0.1-0.6-0.2-1.2l11.2-7.9
			c0.5,0.9,1.2,2.4,2,4.5c0.8,2.1,1.3,4.5,1.4,7c0.1,3.1-0.6,5.9-2.1,8.4c-1.5,2.5-4.2,4.5-8.1,5.9c-2.7,1-5.3,1.5-7.7,1.6
			c-3.7,0.1-6.9-0.6-9.8-2.1c-2.9-1.5-5.2-3.4-7.2-5.6c-0.9-1-1.6-2.7-2.2-5.2c-0.6-2.4-1-4.9-1.2-7.6c-0.2-2.6-0.4-5.3-0.5-7.9
			l-0.1-4l-10.4,0.7l-3.2-15.8l13.1,0.4L118.8,90z"/>
	</g>
	<g class="st20">
		<path class="st11" d="M95.9,111.2l13.9-8.1l2.3,19.5c0.3,1.2,0.6,2.6,0.7,4.1c0.1,1.4,0.2,2.4,0.2,3l2.7,21.4l-15.6,2.5l-0.2-2.1
			c-2.5,1.3-5,2.1-7.6,2.4c-2,0.2-3.9,0.1-5.7-0.3c-1.8-0.4-3.4-1.1-4.8-2c-2.3-1.5-4.1-3.7-5.6-6.5c-1.5-2.8-2.4-5.8-2.7-9.1
			c-0.6-5.6,0.6-10.3,3.4-14.1c2.5-3.2,5.1-5.8,8-7.6c2.8-1.8,5.8-2.9,8.9-3.2c0.9-0.1,1.5-0.1,2-0.1L95.9,111.2z M96.3,117.4
			c-1.3,0.3-2.5,0.8-3.7,1.6c-1.2,0.8-2.2,1.7-3,2.6c-0.8,1-1.4,2-1.8,3.1s-0.5,2.2-0.4,3.2c0.2,2.1,1.4,3.7,3.6,4.9
			c1.9,1,3.8,1.4,5.6,1.2c0.3,0,0.8-0.1,1.4-0.3l-0.8-7.4c-0.6,0.1-1.2,0-1.7-0.3c-0.8-0.5-1.2-1.5-1.4-3.1
			C93.9,120.6,94.6,118.8,96.3,117.4z"/>
	</g>
	<g class="st20">
		<path class="st11" d="M184.6,100.9c1.4,1.1,2.6,2.6,3.6,4.4c1,1.8,1.8,3.5,2.3,5c0.5,1.5,0.8,2.6,1,3.2l-13.3,1.5
			c-0.1-1.2-0.6-2-1.6-2.5c-1-0.5-2-0.8-3.2-0.9c-6-0.1-9.3,3.2-10,9.7c-0.4,5.2,0.9,8.2,4,9.1c1.5,0.2,2.8-0.1,4.1-0.7
			c1.3-0.6,2.4-1.5,3.4-2.6c1-1.1,1.8-2.4,2.5-3.8l12.7,4c-0.2,0.5-0.6,1.3-1.3,2.7c-0.8,1.5-2.4,3.4-4.9,5.8s-5.2,3.9-8,4.7
			c-3.4,0.9-6.8,1.2-10,0.9c-5.2-0.5-9.6-2.7-13.2-6.5c-1.7-1.8-2.8-3.8-3.4-5.9c-0.6-2.2-0.8-4.4-0.5-6.8c0.3-2.4,0.8-4.8,1.8-7.1
			c0.9-2.3,2-4.3,3.2-6.2c1.5-2.4,3.2-4.4,4.9-6c1.7-1.6,3.5-2.9,5.3-3.9c1.8-1,3.6-1.6,5.5-2c1.8-0.3,3.6-0.4,5.4-0.2
			C178.4,97.2,181.7,98.6,184.6,100.9z"/>
	</g>
	<g class="st20">
		<path class="st11" d="M206.6,117.6c4.4-0.5,8.1-0.4,11.1,0.2c2.7,0.6,5,1.7,6.8,3.3c1.1,1,2.2,2.3,3.4,4.1c1.2,1.8,2.2,3.6,3,5.6
			s1.2,3.8,1.2,5.5c0.2,5.2-0.1,9.6-0.9,13.2c-0.4,1.9-1,3.9-1.7,6s-1.7,4.7-2.9,7.9l-14.6-2.2c0.3-1.1,0.7-2.8,1.1-4.9
			c1.9-9,2.3-16.9,1.2-23.8c-0.5-2.6-1.1-4-2.1-4.2c-1.2-0.3-2.9,1.1-5,4.1c-0.5,0.7-1,1.6-1.4,2.6c-0.4,1-0.8,2.1-1.2,3.4
			c-0.4,1.3-0.8,2.8-1.1,4.5c-0.8,3.5-1.5,8.1-2.3,13.6l-17.3-1.7c0.1-1.4,0.3-3,0.7-4.8c0.3-1.8,0.7-3.7,1-5.6
			c0.4-1.9,0.7-3.7,0.9-5.3s0.4-3.4,0.5-5.5l8.7-45.1l14.5,1.3L206.6,117.6z"/>
	</g>
	<g class="st20">
		<path class="st11" d="M243.2,151.1c1.6,0.5,2.9,1.1,3.9,2c1,0.9,1.8,1.8,2.3,2.7c0.5,1,0.8,1.8,1,2.4c0.1,0.7,0,1.4-0.2,2.1
			c-0.3,1.1-0.9,2.1-1.7,3.1s-1.7,1.8-2.6,2.4c-0.9,0.6-1.7,0.9-2.3,0.9c-1.3-0.2-2.2-0.3-2.7-0.5c-2.2-0.6-3.8-1.7-4.9-3.3
			c-1-1.5-1.3-3.4-1-5.4c0.6-1.9,1.5-3.6,3-5C239.4,151.2,241.1,150.7,243.2,151.1z M240.9,140.3l6.3-38.6l22-0.3l-16.3,41.2
			L240.9,140.3z"/>
	</g>
	<polygon class="st13" points="44.9,122.2 42.6,124.3 35.6,118.3 24.2,122.1 23.9,119.2 36.9,115.2 	"/>
	<polygon class="st13" points="53.9,139.2 50.6,142.4 49.3,146.5 50.9,148.2 	"/>
	<path class="st13" d="M155.5,143.6c0,0-8.2-3.5-9.1-7.4s2.2-3.9,2.2-3.9l9,9L155.5,143.6z"/>
	<path class="st13" d="M132.6,117.3h-2.6c-0.4,0-0.9,9.2-1,10c-0.2,3.5,0.3,7,1.2,10.4c0.6,2.1,1.7,4.2,3.6,5.2
		c1.8,0.8,3.8,0.9,5.6,0.5c1.2-0.2,2.4-0.6,3.6-1.2c1-0.6,1.8-1.5,2.2-2.6c0.1-0.4,0.4-2.3,0.8-2.3c-0.9,0.2-1.8,0.4-2.7,0.8
		l-2.8,0.8c-0.2,0-2.8,0.9-2.9,0.8l-4-7.4L132.6,117.3z"/>
	<polygon class="st13" points="143.6,110.4 130,110.4 129,90.2 120.8,93.6 120.6,91.3 131.6,86.3 132.6,108.3 143.6,108.3 	"/>
	<polygon class="st13" points="122.2,108.3 121.1,110.4 112.8,110.4 112.6,108.3 	"/>
	<path class="st13" d="M111.2,150.4l-4.7-40l-9.5,5.1c0,0-14.5-0.8-21,15c1.5-9.1,4.5-13.1,9.5-16.1c3.4-1.9,7.1-3.3,11-4l13-6
		l4.5,45.7L111.2,150.4z"/>
	<polygon class="st13" points="76.1,159.7 79.9,159.2 54.9,106.2 45.9,109.2 45.7,112.3 53.6,110.3 	"/>
	<path class="st13" d="M188.6,111.3l-3,0.4c0,0-5.1-19.4-26.1-7.4c2.1-4,9.1-7,9.1-7s14-1,15,3s5.3,7.1,5.3,7.1L188.6,111.3z"/>
	<polygon class="st13" points="185.4,130.5 176.9,127.4 178.6,125.3 186.4,128.2 	"/>
	<path class="st13" d="M99.9,135.2c0,0-1.1,1-1.2,1.1c-1.3,0.9-2.7,1.4-4.2,1.6c-3.5,0.5-7-0.4-9.2-3.4c-3-4.1-1.3-9,1.8-12.4
		c2.5-2.7,4,8.4,4,8.4L99.9,135.2z"/>
	<path class="st13" d="M175.2,129.1c-0.4,0.2-1,1.4-1.4,1.8c-1.9,2.1-4.1,3.7-7,3.4c-2-0.3-3.8-1.4-5-3c-2.1-2.8-3-6.4-2.4-9.9
		c0.4-1.7,1-3.3,2-4.7c0.5-0.7,1-1.4,1.6-2c0.3-0.3,1.8-1.4,1.9-1.7c-0.2,3.3-3.8,13.5,0,14.9S168.8,131.8,175.2,129.1z"/>
	<path class="st13" d="M222.5,160.4c0,0,10-20.9,1-32.4s-22.3-2.1-22.3-2.1l4.3-32.5l-8.2-0.7l0.2-1.3l10,1.1l-2.7,28
		c0,0,7.2-3.6,13.5-1.3s15.2,12.3,13.2,22.3c-1.5,6.6-3.8,13-7,19L222.5,160.4z"/>
	<path class="st13" d="M198.6,154.4l-2.2-0.2c0,0,2.3-22.4,13.2-28.1c-4,7.3-8,23.3-8,23.3L198.6,154.4z"/>
	<polygon class="st13" points="42.9,140.2 40.6,143.4 42.1,162.1 44.9,161.2 	"/>
	
		<linearGradient id="SVGID_1_" gradientUnits="userSpaceOnUse" x1="39.5831" y1="97.0313" x2="41.0431" y2="93.6313" gradientTransform="matrix(1 0 0 -1 0 204)">
		<stop  offset="0" style="stop-color:#105FA1"/>
		<stop  offset="1" style="stop-color:#1D2C5E"/>
	</linearGradient>
	<polygon class="st21" points="41.9,106.2 38.6,109.3 38.6,110.8 41.9,114.2 	"/>
	<polygon class="st7" points="86.9,162.2 81.9,166.2 59.5,169.4 53.4,153.5 54.9,149.2 61.4,166 	"/>
	
		<linearGradient id="SVGID_2_" gradientUnits="userSpaceOnUse" x1="47.5793" y1="55.3697" x2="49.3693" y2="51.2197" gradientTransform="matrix(1 0 0 -1 0 204)">
		<stop  offset="0" style="stop-color:#105FA1"/>
		<stop  offset="1" style="stop-color:#1D2C5E"/>
	</linearGradient>
	<polygon class="st22" points="52.9,155.2 50.6,157.4 47.9,155.2 46.9,149.2 	"/>
	
		<linearGradient id="SVGID_3_" gradientUnits="userSpaceOnUse" x1="97.8827" y1="56.9455" x2="100.8227" y2="50.1255" gradientTransform="matrix(1 0 0 -1 0 204)">
		<stop  offset="0" style="stop-color:#105FA1"/>
		<stop  offset="1" style="stop-color:#1D2C5E"/>
	</linearGradient>
	<path class="st23" d="M83,153.9l1.4,2.9c0,0,7.2,2.5,14.2-0.5v1.8l16.7-2.2l2.6-3.9L99.4,155v-1.4L83,153.9z"/>
	<polygon class="st7" points="227.9,165.2 221.6,168.4 205.6,165.4 209.9,162.2 	"/>
	<path class="st7" d="M205.6,165.4c0,0,7.1-26.8,4-32.4s5-1.6,5-1.6l-2.1,26.2l-2.6,4.6L205.6,165.4z"/>
	<polygon class="st7" points="203.3,158.2 198.6,161.4 178.6,159.4 182.5,139.2 185.6,136.5 181.9,156.2 	"/>
	
		<linearGradient id="SVGID_4_" gradientUnits="userSpaceOnUse" x1="170.8179" y1="67.1191" x2="172.8679" y2="62.3891" gradientTransform="matrix(1 0 0 -1 0 204)">
		<stop  offset="0" style="stop-color:#105FA1"/>
		<stop  offset="1" style="stop-color:#1D2C5E"/>
	</linearGradient>
	<path class="st24" d="M185.6,136.5l-0.8,4.1c0,0-5.4,8.8-25.3,4.8c-0.9-5,1.4-3.2,1.4-3.2S177.6,144.7,185.6,136.5z"/>
	<path class="st7" d="M162.8,145.9c0,0-1.9,3.4-2,3.6c-3.3,4.5-8.4,7.4-13.9,8.1c-3.4,0.3-6.9,0.2-10.2-0.5c-4-0.6-7.9-1.9-11.3-3.9
		c-2.7-1.6-4.8-4-6.2-6.8c-1.5-3.2-2.1-6.8-2.7-10.3c-0.7-4-1.3-8-1.6-12c0,0,0-0.4,0-0.4c5.9-2.3,4.2-0.4,4.2-0.4l3.3,18.8
		l10.8,10.2h14.9l11.6-6.8L162.8,145.9z"/>
	<path class="st7" d="M136.6,124.5l7.6-0.8c0.2,2.4,0.6,4.7,1.3,7c4.1-1.3,2.5-1.5,2.5-1.5l-1-8l-10,0.8l-1.3,1.3L136.6,124.5z"/>
	<polygon class="st7" points="115.5,88.9 111.6,93.3 111.9,100.2 112.8,102.7 116.4,102.3 	"/>
	<polygon class="st7" points="187.3,124.7 184.8,123.8 186,115.5 188.9,115.2 	"/>
	<polygon class="st7" points="193.9,86.2 189.9,88.9 188.2,100.1 190.9,104.2 	"/>
	<path class="st7" d="M188.4,117.9l-13.3,1.2c0,0-0.4-9.3-10,0.5c-0.6-3.2,3.6-6.9,3.6-6.9s6.9-3.2,9.9,0.7s6.2,0.9,6.2,0.9l4.8,0.1
		L188.4,117.9z"/>
	<path class="st7" d="M163.5,96.4c0,0-6.2,1-14.6,13c-1.3,5-0.7,6.1-0.7,6.1L163.5,96.4z"/>
	<path class="st7" d="M142.9,132.2l-2.3,2.1c1.1,1.4,1.1,3.3,0,4.7c-2,2.4,3-1.7,3-1.7l0.5-4.3L142.9,132.2z"/>
	
		<linearGradient id="SVGID_5_" gradientUnits="userSpaceOnUse" x1="74.5421" y1="88.5766" x2="77.5121" y2="81.6766" gradientTransform="matrix(1 0 0 -1 0 204)">
		<stop  offset="0" style="stop-color:#105FA1"/>
		<stop  offset="1" style="stop-color:#1D2C5E"/>
	</linearGradient>
	<path class="st25" d="M83.7,111.9c0,0-10.8,6.6-14,16c0.4,1.9,1,3.7,1.8,5.4L83.7,111.9z"/>
	
		<linearGradient id="SVGID_6_" gradientUnits="userSpaceOnUse" x1="238.59" y1="81.65" x2="271.59" y2="81.65" gradientTransform="matrix(1 0 0 -1 0 204)">
		<stop  offset="0" style="stop-color:#3C5AA6"/>
		<stop  offset="0.93" style="stop-color:#2B73B9"/>
		<stop  offset="1" style="stop-color:#2A75BB"/>
	</linearGradient>
	<path class="st26" d="M245.1,99.3l-6.5,43l15,3l18-46L245.1,99.3z M251.9,139.2l-8.3-1.9l5.8-32.8l15-0.3L251.9,139.2z"/>
	<polygon class="st13" points="251.9,139.2 249.6,138.7 261.4,106 249.1,106.4 249.4,104.5 264.4,104.2 	"/>
	<path class="st13" d="M244.4,153.7c0,0,3.2,5.7-1.8,9.7s6-2,6-2v-6L244.4,153.7z"/>
	<polygon class="st7" points="253.6,145.4 249.8,147.1 236.6,144.4 242.6,101.8 245.1,99.3 238.6,142.4 	"/>
	<path class="st7" d="M250.6,164.3c-0.4,0.5-0.8,0.9-1.1,1.5c-2.2,2.4-4.6,4.5-8.1,4.6c-2.6,0-5-1-6.8-2.9
		c-2.5-2.8-2.7-6.8-2.1-10.3c1-5.8,4.6,6.7,4.6,6.7l9.4,0.6L250.6,164.3z"/>
	
		<linearGradient id="SVGID_7_" gradientUnits="userSpaceOnUse" x1="232.59" y1="45.65" x2="252.59" y2="45.65" gradientTransform="matrix(1 0 0 -1 0 204)">
		<stop  offset="0" style="stop-color:#3C5AA6"/>
		<stop  offset="0.93" style="stop-color:#2B73B9"/>
		<stop  offset="1" style="stop-color:#2A75BB"/>
	</linearGradient>
	<path class="st27" d="M242.6,148.4c-5.5,0-10,4.5-10,10s4.5,10,10,10s10-4.5,10-10S248.1,148.4,242.6,148.4z M242.6,163.4
		c-2.8,0-5-2.2-5-5s2.2-5,5-5s5,2.2,5,5S245.4,163.4,242.6,163.4z"/>
	
		<linearGradient id="SVGID_8_" gradientUnits="userSpaceOnUse" x1="11.5159" y1="87.7626" x2="23.8859" y2="59.0726" gradientTransform="matrix(1 0 0 -1 0 204)">
		<stop  offset="0" style="stop-color:#105FA1"/>
		<stop  offset="1" style="stop-color:#1D2C5E"/>
	</linearGradient>
	<polygon class="st28" points="49.3,163.9 46.6,170.4 20.6,177.4 14.4,121.7 17.9,115.2 27.6,168.4 	"/>
	
		<linearGradient id="SVGID_9_" gradientUnits="userSpaceOnUse" x1="85.9256" y1="78.6619" x2="99.9" y2="78.6619" gradientTransform="matrix(1 0 0 -1 0 204)">
		<stop  offset="0" style="stop-color:#3C5AA6"/>
		<stop  offset="0.93" style="stop-color:#2B73B9"/>
		<stop  offset="1" style="stop-color:#2A75BB"/>
	</linearGradient>
	<path class="st29" d="M96.3,124.4c-0.3-0.5-0.5-1.1-0.4-1.7c0-0.7,0.1-1.4,0.3-2c0.4-1.2,0.9-2.3,1.5-3.4c0.2-0.5,0.5-1,0.8-1.5
		c0.1-0.2,0.2-0.4,0.3-0.6c-0.8,0.1-1.6,0.2-2.4,0.4c-0.8,0.1-1.6,0.4-2.4,0.6c-1.5,0.5-2.9,1.4-4.1,2.4c-3,2.6-4.7,6.4-3.7,10.3
		c2.3,8.8,13.7,6.2,13.7,6.2l-1-10.5C98.1,124.8,96.9,125,96.3,124.4z"/>
	
		<linearGradient id="SVGID_10_" gradientUnits="userSpaceOnUse" x1="17.9" y1="79.31" x2="234.4619" y2="79.31" gradientTransform="matrix(1 0 0 -1 0 204)">
		<stop  offset="0" style="stop-color:#3C5AA6"/>
		<stop  offset="0.93" style="stop-color:#2B73B9"/>
		<stop  offset="1" style="stop-color:#2A75BB"/>
	</linearGradient>
	<path class="st30" d="M232.8,129.2c-0.3-0.8-0.6-1.6-1-2.4c-1.8-4-4.8-7.3-8.6-9.4c-3.7-2.1-9.1-3.5-13.2-2.2c0.8-4,2.8-27,2.8-27
		l-19-2l-3,18c0,0-4-9-14-10c-3.8-0.4-7.7,0-11.3,1.3c-3.8,1.3-6.5,3.7-9.3,6.4c-2.5,2.3-4.5,5-6,8.1c-0.7,1-1.2,2.1-1.4,3.3v-10
		h-11v-25L115.5,89l0.9,13.3l-3.6,0.4l-0.9-2.5l-15,8c0,0-20.5-0.9-25.8,22.6c-3.2-6.6-14.2-29.6-14.2-29.6l-15,5v8l-5-5l-19,6l8,56
		l23.5-7.2l-2.5-14.8l6,6l2-6l6.5,16.8l25.5-3.8l-3.9-8.3c0,0,5.1,3,14,0.6c0.9-0.4,2.4-1,2.4-1v1.5l18.5-2.8l-3.2-28.6l4.2-0.4
		c0.2,4.2,0.4,8.5,0.8,12.7c0.1,1.5,0.3,3,0.6,4.5c0.4,1.8,1.1,3.6,2.1,5.2c2.6,4.3,7.3,7.1,12.1,8.3c5.5,1.3,11.7,1.2,16.9-1.1
		c0.9-0.4,1.7-0.8,2.5-1.4c1.7-1.1,3.2-2.4,4.4-4.1c1.1-1.6,1.9-3.4,2.6-5.2c0,0,10,3,18-1c1.8-0.8,3.5-1.8,5-3c1-1,1.7-1.7,1.7-1.7
		l-3.7,19.7l21.4,2.1c1.4-8.8,2.1-18,6.9-25.8c0.4-0.6,1-1.3,1.6-0.9c0.2,0.1,0.4,0.3,0.4,0.6c0.4,0.9,0.6,1.8,0.6,2.8
		c0.7,9.2-1,18.3-2.9,27.4l18,3c3.5-8.1,6.5-16.4,6.6-25.4C234.5,136.2,233.9,132.6,232.8,129.2z M147.9,129.2l-5,3c0,0,2,4-2,5.5
		c-0.9,0.4-1.9,0.2-2.6-0.5c-0.7-0.9-1.2-1.9-1.2-3.1c-0.4-2.4-0.7-4.9-0.6-7.3c0-0.6-0.3-4.7,0.5-4.8c8-0.8,10-0.8,10-0.8
		C146.9,123.9,147.3,126.6,147.9,129.2L147.9,129.2z M64.9,161.2l-11-22l-3,9l-8-8l2,21l-16,5l-5-47l13-4l8,7l1-13l9-3l25,53
		L64.9,161.2z M101.9,151.7v-3.5c-9,4-11,3-16,1.5s-10-8.5-8.9-20.1c0.2-2,0.9-4,2-5.7c1.1-1.7,2.4-3.1,3.9-4.4
		c1.5-1.2,3-2.3,4.7-3.2c1.3-0.7,2.6-1.3,4-1.9c0.8-0.4,1.7-0.7,2.5-0.9c0.9-0.2,1.8-0.3,2.8-0.3l11.9-7l5.3,43.8L101.9,151.7z
		 M156.2,141.9c-0.5,1.2-1,2.3-1.6,3.4c-1.9,3-5.6,4.4-8.9,5.5c-4.2,0.6-13.5,2.6-19.9-6.4c-2.3-4-3.3-12-3.3-21v-6h-9l-1-9h9.6
		l-1.4-15.4c-0.1-1-0.2-1.6-0.2-1.6l11-5l1,22h11v9c0,0-10,0-11,0c-0.4,0-0.7,4.7-0.7,5.2c-0.4,3.9-0.2,7.9,0.4,11.8
		c0.3,1.7,0.9,3.4,1.8,4.9c1.4,2.1,4.1,3.1,6.5,2.4c0,0,6-0.3,6-7.3l2-1c-0.2,0.1,1.3,2.4,1.4,2.5c0.7,1,1.6,1.8,2.5,2.6
		c1.1,0.9,2.3,1.7,3.6,2.5C156.5,141.2,156.4,141.4,156.2,141.9L156.2,141.9z M176.6,138.4c-2.4,0.9-5,1.4-7.7,1.4
		c-3.9,0.1-7.8-1-11.1-3.1c-3.5-2.3-6-5.8-6.9-9.9c-0.8-4.4,0.5-9,2.3-13.1c1.6-3.8,4.1-7.2,7.1-10c4.9-4.4,12.2-6.5,18.6-4.2
		c5.2,1.9,8,7,9.6,12l-9,1.3c-0.5,0.1-1.2-1-1.5-1.3c-0.7-0.6-1.5-1-2.4-1.1c-3.9-0.9-7.9,0.2-10.9,2.8c-3.2,3-4.1,8.1-3.2,12.3
		c0.6,2.7,2.2,5.4,4.8,6.3c2.4,0.9,5,0,7.1-1.3c1-0.7,2-1.5,2.9-2.3c0.2-0.2,2.2-2.7,2.2-2.7l7.8,2.8c-1.1,3.6-3.5,6.7-6.8,8.7
		C178.7,137.5,177.6,138,176.6,138.4L176.6,138.4z M188.9,115.2l-1.6,9.5l-10.4-3.5c0.1,0-1.7,3.1-1.9,3.3c-1.2,1.8-2.8,3.5-5.1,3.7
		c-1.3,0.2-2.7-0.3-3.7-1.2c-0.9-1-1.4-2.2-1.5-3.5c-0.2-3.3,0.9-7.3,3.8-9.2c1.1-0.7,2.3-1.2,3.5-1.4c1-0.3,2-0.2,3,0.1
		c0.8,0.3,1.5,0.9,1.9,1.6c0.2,0.3,0.5,1.6,0.9,1.6C179.9,116.2,188.9,115.2,188.9,115.2L188.9,115.2z M224.6,160.4l-9-1v-0.1
		c1.9-9.6,4.3-21.6,0.1-30.9c-0.3-0.8-0.8-1.5-1.3-2.1c-1.3-1.2-3.3-1.3-4.8-0.2c-3.4,2.3-5.3,6.8-7,10.3c-2,4-4,18-4,18l-12-0.9
		l-1-0.1l12-62l10,1.1l-4,29.9c1.3-0.6,2.6-1.2,4-1.7c7-2.7,14,1.7,17,4.7s5,10,5,17S224.6,160.4,224.6,160.4L224.6,160.4z"/>
</g>
</svg>
